# xmcd
#
# Track frame offsets:
#	150
#	18347
#	33455
#	48302
#	63837
#	74862
#	90312
#	105330
#	119487
#	134942
#
# Disc length: 1961
#
# Revision: 5
# Processed by: cddbd v1.5.1PL0 Copyright (c) Steve Scherf et al.
# Submitted via: dBpowerAMP V4.0
# Normalized: r4:TSWAP
#
DISCID=8c07a70a
DTITLE=Various Artist - Greatest Country Hits of the 80's - 1988
DYEAR=1989
DGENRE=Country
TTITLE0=Rosanne Cash - Runaway Train
TTITLE1=Rodney Crowell and Rosanne Cash - It's Such A Small World
TTITLE2=Rodney Crowell - I Couldn't Leave You If I Tried
TTITLE3=Charlie Daniels - Boogie Woogie Country Fiddle Blues
TTITLE4=Vern Gosdin - Set 'Em Up Joe
TTITLE5=Merle Haggard - Twinkle, Twinkle, Lucky Star
TTITLE6=The O'Kanes - One True Love
TTITLE7=Ricky VanShelton - I'll Leave this World Loving You
TTITLE8=Shenandoah - Mama Knows
TTITLE9=Sweethearts Of The Rodeo - Satisfy You
EXTD=
EXTT0=
EXTT1=
EXTT2=
EXTT3=
EXTT4=
EXTT5=
EXTT6=
EXTT7=
EXTT8=
EXTT9=
PLAYORDER=
